<svg id="aeb65495-8d13-4ea3-9649-5037d66519a9" data-name="Layer 1" xmlns="http://www.w3.org/2000/svg" xmlns:xlink="http://www.w3.org/1999/xlink" viewBox="0 0 255.89 71.66"><defs><linearGradient id="e4d7dd11-9e61-4914-b2d3-e8918a9123b6" x1="131.79" y1="25.33" x2="136.54" y2="25.33" gradientUnits="userSpaceOnUse"><stop offset="0" stop-color="#4a59e3"/><stop offset="1" stop-color="#a4a8ff"/></linearGradient><linearGradient id="f5691804-9f9d-4e18-92cf-43f8b2964e6e" x1="129" y1="18.52" x2="167" y2="18.52" xlink:href="#e4d7dd11-9e61-4914-b2d3-e8918a9123b6"/></defs><path d="M17,71.27V33H31.82q9.66,0,14.46,5.73a20,20,0,0,1,4.8,13.25q0,8.59-5.15,14a17.71,17.71,0,0,1-13.38,5.37Zm11.76-8.81h3.06a5.91,5.91,0,0,0,4.93-2.84,13.12,13.12,0,0,0,2-7.72A14,14,0,0,0,37,44.69a5.64,5.64,0,0,0-5.15-3H28.76Z" transform="translate(-17 -6.65)" fill="#4a59e3"/><path d="M59.83,70.05H50V43.9h8.53v5.4q1.47-5.88,6.82-5.89a14.83,14.83,0,0,1,1.49.11v9.13a8,8,0,0,0-1.93-.26q-5.09,0-5.09,5.68Z" transform="translate(-17 -6.65)" fill="#4a59e3"/><path d="M82.1,56.67l9.57.64a11.32,11.32,0,0,1-4.33,6.57q-3.5,2.71-9.43,2.71-6.6,0-10.54-3.81a12.71,12.71,0,0,1-3.94-9.48A13.57,13.57,0,0,1,77.68,39.36a13.83,13.83,0,0,1,10.14,3.81Q91.69,47,91.69,53.53c0,.36,0,.86,0,1.49H74.16A6.76,6.76,0,0,0,75,58.69c.55.79,1.6,1.19,3.14,1.19A3.57,3.57,0,0,0,82.1,56.67Zm-.69-6.79c0-1.77-.37-3-1.06-3.56a3.79,3.79,0,0,0-2.58-.92c-2.43,0-3.64,1.5-3.64,4.48Z" transform="translate(-17 -6.65)" fill="#4a59e3"/><path d="M116.8,70.05H107a17.31,17.31,0,0,1-.36-3.65q-2.79,4.2-8.41,4.19c-3.09,0-5.4-.78-6.93-2.36A7.55,7.55,0,0,1,89,62.8a7.78,7.78,0,0,1,3.76-6.7q3.76-2.55,13.36-3.07v-.59a2.7,2.7,0,0,0-.78-2.29,3.9,3.9,0,0,0-2.3-.57c-2.37,0-3.69,1-4,2.86l-9.36-.88q2-8.19,13.65-8.2a25.05,25.05,0,0,1,5.81.63,9.68,9.68,0,0,1,4.19,2,6.76,6.76,0,0,1,2.07,2.83,19.87,19.87,0,0,1,.53,5.73V65A14.43,14.43,0,0,0,116.8,70.05ZM106.15,57.81c-4.37.47-6.56,1.86-6.56,4.2,0,1.57.87,2.36,2.6,2.36a4.19,4.19,0,0,0,2.81-1c.77-.65,1.15-2.09,1.15-4.32Z" transform="translate(-17 -6.65)" fill="#4a59e3"/><path d="M155.68,66.05h-10V49.7a4.13,4.13,0,0,0-.47-2.3,2,2,0,0,0-1.69-.66q-2.88,0-2.88,4.19V66.05h-9.85V49.7c0-2.09-.8-3.14-2.41-3.14s-2.5,1-2.5,3.14V66.05h-9.87V39.9h9.2v3.52a7.93,7.93,0,0,1,7.18-4.06,7.81,7.81,0,0,1,7.35,4.06,8.61,8.61,0,0,1,7.82-4.06,9,9,0,0,1,4.44,1.06,6.53,6.53,0,0,1,2.77,2.71,11.51,11.51,0,0,1,.86,5.13Z" transform="translate(-17 -6.65)" fill="#4a59e3"/><path d="M194.37,34v35.1h-10V44l-6.49,25.09H171L164.28,44V69.05H156.2V34h14.08l5.1,18.65L180.23,34Z" transform="translate(-17 -6.65)" fill="#a4a8ff"/><path d="M221.22,66.05h-9.77a17.31,17.31,0,0,1-.36-3.65q-2.79,4.2-8.41,4.19c-3.09,0-5.4-.78-6.93-2.36a7.56,7.56,0,0,1-2.31-5.43,7.79,7.79,0,0,1,3.77-6.7Q201,49.55,210.57,49v-.59a2.7,2.7,0,0,0-.78-2.29,3.9,3.9,0,0,0-2.3-.57c-2.37,0-3.69,1-4,2.86l-9.36-.88q2-8.19,13.65-8.2a25.05,25.05,0,0,1,5.81.63,9.74,9.74,0,0,1,4.19,2,6.76,6.76,0,0,1,2.07,2.83,20.25,20.25,0,0,1,.53,5.73V61A14.43,14.43,0,0,0,221.22,66.05ZM210.57,53.81c-4.37.47-6.56,1.86-6.56,4.2,0,1.57.87,2.36,2.6,2.36a4.14,4.14,0,0,0,2.8-1c.78-.65,1.16-2.09,1.16-4.32Z" transform="translate(-17 -6.65)" fill="#a4a8ff"/><path d="M230.74,78.31H220.48V43.9h9.43v3.7c1.32-2.82,3.78-4.24,7.38-4.24A8.55,8.55,0,0,1,244.62,47q2.65,3.64,2.65,9.91t-2.71,10a8.46,8.46,0,0,1-7.16,3.7,7.55,7.55,0,0,1-6.66-3.34Zm0-17.82a4.15,4.15,0,0,0,.79,2.71,2.49,2.49,0,0,0,2,1,2.53,2.53,0,0,0,2.55-1.71,15,15,0,0,0,.69-5.26,14.62,14.62,0,0,0-.79-5.75,2.55,2.55,0,0,0-2.39-1.66,3,3,0,0,0-1.89.75,2.91,2.91,0,0,0-.94,2.44Z" transform="translate(-17 -6.65)" fill="#a4a8ff"/><path d="M256.35,74.31H246.09V39.9h9.44v3.7c1.32-2.82,3.78-4.24,7.38-4.24A8.56,8.56,0,0,1,270.24,43q2.65,3.64,2.65,9.91t-2.71,10a8.47,8.47,0,0,1-7.17,3.7,7.57,7.57,0,0,1-6.66-3.34Zm0-17.82a4.15,4.15,0,0,0,.8,2.71,2.48,2.48,0,0,0,2,1,2.54,2.54,0,0,0,2.55-1.71,15,15,0,0,0,.69-5.26,14.39,14.39,0,0,0-.8-5.75,2.54,2.54,0,0,0-2.39-1.66,3,3,0,0,0-1.89.75,2.94,2.94,0,0,0-.94,2.44Z" transform="translate(-17 -6.65)" fill="#a4a8ff"/><circle cx="134.17" cy="25.33" r="2.38" fill="url(#e4d7dd11-9e61-4914-b2d3-e8918a9123b6)"/><path d="M167,18.12a6.72,6.72,0,0,0-8.42-6.5,6.72,6.72,0,0,0-6.23-4.18,6.56,6.56,0,0,0-2.43.46A6.64,6.64,0,0,0,146,6.65a6.72,6.72,0,0,0-6.43,4.75,6.71,6.71,0,0,0-6.2,4.38,6.73,6.73,0,0,0,4.37,12.72,2.38,2.38,0,0,0,2.32,1.9,2.35,2.35,0,0,0,2.07-1.23,6.71,6.71,0,0,0,8.69-.81,6.73,6.73,0,0,0,8.25-.36v0a2.38,2.38,0,1,0,2.38-2.37,2.32,2.32,0,0,0-.65.1,7.93,7.93,0,0,0,.37-1A6.74,6.74,0,0,0,167,18.12Z" transform="translate(-17 -6.65)" fill="url(#f5691804-9f9d-4e18-92cf-43f8b2964e6e)"/></svg>